<svg xmlns="http://www.w3.org/2000/svg" viewBox="0 0 400 400" width="800" height="800" role="img" aria-label="120-piece Socket Set"><defs><radialGradient id="bg" cx=".5" cy=".42" r=".78"><stop offset=".55" stop-color="#ffffff"/><stop offset="1" stop-color="#eef1ee"/></radialGradient><filter id="sh" x="-20%" y="-20%" width="140%" height="150%"><feDropShadow dx="0" dy="6" stdDeviation="6" flood-color="#000" flood-opacity=".22"/></filter></defs><rect width="400" height="400" fill="url(#bg)"/><ellipse cx="200" cy="340" rx="124" ry="11" fill="#000" opacity=".10"/><g filter="url(#sh)"><rect x="50" y="120" width="300" height="200" rx="16" fill="url(#g62)"/><rect x="62" y="132" width="276" height="176" rx="10" fill="#1b1b1f"/><circle cx="88" cy="160" r="10" fill="url(#g63)"/><circle cx="120" cy="160" r="11.5" fill="url(#g64)"/><circle cx="152" cy="160" r="13" fill="url(#g65)"/><circle cx="184" cy="160" r="14.5" fill="url(#g66)"/><circle cx="216" cy="160" r="10" fill="url(#g67)"/><circle cx="248" cy="160" r="11.5" fill="url(#g68)"/><circle cx="280" cy="160" r="13" fill="url(#g69)"/><circle cx="312" cy="160" r="14.5" fill="url(#g70)"/><circle cx="88" cy="208" r="10" fill="url(#g71)"/><circle cx="120" cy="208" r="11.5" fill="url(#g72)"/><circle cx="152" cy="208" r="13" fill="url(#g73)"/><circle cx="184" cy="208" r="14.5" fill="url(#g74)"/><circle cx="216" cy="208" r="10" fill="url(#g75)"/><circle cx="248" cy="208" r="11.5" fill="url(#g76)"/><circle cx="280" cy="208" r="13" fill="url(#g77)"/><circle cx="312" cy="208" r="14.5" fill="url(#g78)"/><circle cx="88" cy="256" r="10" fill="url(#g79)"/><circle cx="120" cy="256" r="11.5" fill="url(#g80)"/><circle cx="152" cy="256" r="13" fill="url(#g81)"/><circle cx="184" cy="256" r="14.5" fill="url(#g82)"/><circle cx="216" cy="256" r="10" fill="url(#g83)"/><circle cx="248" cy="256" r="11.5" fill="url(#g84)"/><circle cx="280" cy="256" r="13" fill="url(#g85)"/><circle cx="312" cy="256" r="14.5" fill="url(#g86)"/><rect x="150" y="104" width="100" height="22" rx="10" fill="#e63946"/></g></svg>