<svg xmlns="http://www.w3.org/2000/svg" viewBox="0 0 400 400" width="800" height="800" role="img" aria-label="Baby Starter Bundle, 0-3 months"><defs><radialGradient id="bg" cx=".5" cy=".42" r=".78"><stop offset=".55" stop-color="#ffffff"/><stop offset="1" stop-color="#eef1ee"/></radialGradient><filter id="sh" x="-20%" y="-20%" width="140%" height="150%"><feDropShadow dx="0" dy="6" stdDeviation="6" flood-color="#000" flood-opacity=".22"/></filter></defs><rect width="400" height="400" fill="url(#bg)"/><ellipse cx="200" cy="340" rx="124" ry="11" fill="#000" opacity=".10"/><g filter="url(#sh)"><path d="M140 76l-48 24-26 56 40 18 18-18v66l-14 70h60l12-26 12 26h60l-14-70v-66l18 18 40-18-26-56-48-24c-10 20-30 28-52 28s-42-8-52-28z" fill="url(#g29)"/><circle cx="200" cy="200" r="18" fill="#fbefc9" opacity=".8"/><path d="M178 304h44" stroke="#a98d35" stroke-width="5"/><ellipse cx="338" cy="116" rx="34" ry="30" fill="url(#g30)"/><circle cx="338" cy="84" r="9" fill="#ceab41"/></g></svg>